<svg xmlns="http://www.w3.org/2000/svg" viewBox="0 0 576 512" fill="currentColor">
  <path d="M215.03 71.05C210.1 68.03 204.1 66.9 198.5 67.7S187 71.01 182.6 75.41L104 154H56C25.07 154 0 179.1 0 210v92C0 333.9 25.07 359 56 359h48l78.62 78.62c4.37 4.37 9.437 6.625 15.06 7.438c5.625 .813 11.5-.188 16.53-3.219C220.6 439.4 224 433.8 224 427.2V84.84C224 78.19 220.6 72.61 215.03 71.05zM336 184c-13.25 0-24 10.75-24 24v96c0 13.25 10.75 24 24 24s24-10.75 24-24v-96C360 194.8 349.3 184 336 184zM432 128c-13.25 0-24 10.75-24 24v208c0 13.25 10.75 24 24 24s24-10.75 24-24V152C456 138.8 445.3 128 432 128zM528 80c-13.25 0-24 10.75-24 24v320c0 13.25 10.75 24 24 24s24-10.75 24-24V104C552 90.75 541.3 80 528 80z"/>
</svg>